<svg width="393" height="393" viewBox="0 0 393 393" fill="none" xmlns="http://www.w3.org/2000/svg">
<g clip-path="url(#clip0_175_770)">
<path d="M377.554 120.01C367.659 96.6099 353.491 75.5982 335.447 57.5535C317.402 39.5141 296.39 25.3467 272.99 15.4458C248.758 5.1977 223.022 0 196.503 0C169.983 0 144.247 5.1977 120.01 15.4458C96.6099 25.3414 75.5982 39.5089 57.5535 57.5535C39.5141 75.5982 25.3467 96.6099 15.4458 120.01C5.1977 144.247 0 169.978 0 196.503C0 223.028 5.1977 248.758 15.4458 272.995C25.3414 296.395 39.5089 317.407 57.5535 335.452C75.5982 353.496 96.6099 367.659 120.01 377.559C144.247 387.808 169.978 393.005 196.503 393.005C223.028 393.005 248.758 387.808 272.995 377.559C296.395 367.664 317.407 353.496 335.452 335.452C353.491 317.412 367.659 296.395 377.559 272.995C387.808 248.758 393.005 223.028 393.005 196.503C393.005 169.978 387.808 144.247 377.559 120.01H377.554ZM196.503 365.412C151.386 365.412 108.968 347.841 77.0659 315.939C72.9783 311.852 69.1326 307.585 65.5237 303.166C63.5614 300.762 63.3509 297.379 65.0292 294.775L196.503 90.7231L327.976 294.775C329.654 297.379 329.444 300.767 327.482 303.166C323.873 307.585 320.027 311.852 315.939 315.939C284.038 347.841 241.62 365.412 196.503 365.412ZM342.791 266.824L199.343 44.2015C198.012 42.134 194.993 42.134 193.662 44.2015L50.2146 266.824C47.821 270.538 44.4014 270.27 42.5759 266.251C32.8592 244.834 27.693 221.418 27.5931 197.208C27.4142 152.738 44.8433 109.83 76.019 78.1181C108.036 45.5483 150.891 27.5931 196.503 27.5931C242.114 27.5931 284.038 45.1643 315.939 77.0659C347.841 108.968 365.412 151.386 365.412 196.503C365.412 220.96 360.241 244.623 350.429 266.251C348.604 270.275 345.179 270.544 342.785 266.829L342.791 266.824Z" fill="#FFE793"/>
<path d="M94.6792 300.32H175.228C177.011 300.32 178.695 299.52 179.826 298.142L196.513 277.761L213.201 298.142C214.332 299.52 216.015 300.32 217.798 300.32H298.326C300.92 300.32 302.345 297.305 300.704 295.296L199.123 171.466C197.77 169.82 195.245 169.82 193.893 171.466L92.3066 295.296C90.6599 297.3 92.0856 300.32 94.6845 300.32H94.6792ZM222.817 283.764L198.339 253.867C197.392 252.709 195.624 252.709 194.672 253.867L170.193 283.764H138.66L196.492 211.896L254.324 283.764H222.812H222.817Z" fill="#FFE793"/>
</g>
<defs>
<clipPath id="clip0_175_770">
<rect width="393" height="393" fill="white"/>
</clipPath>
</defs>
</svg>
