<svg width="2570" height="422" viewBox="0 0 2570 422" fill="none" xmlns="http://www.w3.org/2000/svg">
<g clip-path="url(#clip0_697_2456)">
<path d="M718.077 419.888H790.205L800.706 409.395V270.469L707.576 98.5156V409.409L718.077 419.901V419.888Z" fill="#0D0D0D"/>
<path d="M1021.72 409.094V22.6778L1011.22 12.1848H939.094L928.593 22.6778V247.594L801.086 12.1848H725.191C721.122 19.0183 720.032 20.8415 715.95 27.675L928.383 419.888H928.58L1011.25 419.587L1021.71 409.094H1021.72Z" fill="#0D0D0D"/>
<path d="M2391.5 332.364V253.339H2483.96L2494.46 242.846V176.308L2483.96 165.815H2391.5V99.7091H2549.1L2559.6 89.2161V22.6778L2549.1 12.1848H2308.86L2298.36 22.6778V409.395L2308.86 419.888H2559.49L2569.99 409.395V342.857L2559.49 332.364H2391.5Z" fill="#0D0D0D"/>
<path d="M2158.76 22.6778V332.364H2124.91L2015.41 12.1848H1931.34L1921.4 26.0749L2053.66 412.792L2063.59 419.888H2241.41L2251.91 409.395V22.6778L2241.41 12.1848H2169.29L2158.79 22.6778H2158.76Z" fill="#0D0D0D"/>
<path d="M1519.18 332.364V22.6778L1508.68 12.1848H1436.55L1426.05 22.6778V409.395L1436.55 419.888H1583.73L1615.02 332.364H1519.19H1519.18Z" fill="#0D0D0D"/>
<path d="M665.441 277.237V144.776C665.441 64.7546 602.62 0.0131836 508.007 0.0131836C413.394 0.0131836 350.572 64.7678 350.572 144.776V277.237C350.572 357.259 413.407 422 508.007 422C602.607 422 665.441 357.245 665.441 277.237ZM572.312 277.237C572.312 309.686 550.509 335.958 508.007 335.958C465.504 335.958 443.702 309.699 443.702 277.237V144.776C443.702 112.327 465.504 86.0553 508.007 86.0553C550.509 86.0553 572.312 112.314 572.312 144.776V277.237Z" fill="#0D0D0D"/>
<path d="M157.435 335.945C114.932 335.945 93.1297 309.686 93.1297 277.224V144.763C93.1297 112.314 114.932 86.0422 157.435 86.0422C195.828 86.0422 217.329 107.474 221.136 135.53L231.558 144.75H303.988C308.135 140.343 310.327 138.022 314.462 133.615C308.923 58.8261 247.624 0 157.435 0C62.8347 0 0 64.7546 0 144.763V277.224C0 357.245 62.8347 421.987 157.435 421.987C252.034 421.987 308.923 363.161 314.462 288.359C310.314 283.952 308.122 281.631 303.988 277.224H231.558C227.58 280.739 225.113 282.929 221.136 286.444C217.329 314.513 195.828 335.932 157.435 335.932V335.945Z" fill="#0D0D0D"/>
<path d="M2005.22 406.011L1872.96 19.2807L1863.03 12.1848H1776.79C1773.14 14.7949 1770.5 16.6705 1766.85 19.2807L1634.59 405.998C1638.78 411.848 1640.34 414.025 1644.53 419.888H1720.73L1815.97 141.405L1911.21 419.888H1995.29L2005.22 405.998V406.011Z" fill="#0D0D0D"/>
<path d="M1226.62 335.945C1184.12 335.945 1162.32 309.686 1162.32 277.224V144.763C1162.32 112.314 1184.12 86.0421 1226.62 86.0421C1265.02 86.0421 1286.52 107.474 1290.32 135.529L1300.75 144.75H1373.18L1383.65 133.614C1378.11 58.8129 1316.8 -0.0131836 1226.62 -0.0131836C1132.01 -0.0131836 1069.19 64.7414 1069.19 144.75V277.21C1069.19 357.232 1132.02 421.974 1226.62 421.974C1321.22 421.974 1378.11 363.148 1383.65 288.346L1373.18 277.21H1300.75L1290.32 286.431C1286.52 314.5 1265.02 335.918 1226.62 335.918V335.945Z" fill="#0D0D0D"/>
</g>
<defs>
<clipPath id="clip0_697_2456">
<rect width="2570" height="422" fill="white"/>
</clipPath>
</defs>
</svg>
